<?xml version="1.0" encoding="iso-8859-1"?>
<!-- Generator: Adobe Illustrator 19.0.0, SVG Export Plug-In . SVG Version: 6.00 Build 0)  -->
<svg version="1.1" id="Layer_1" xmlns="http://www.w3.org/2000/svg" xmlns:xlink="http://www.w3.org/1999/xlink" x="0px" y="0px"
	 viewBox="0 0 512 512" style="enable-background:new 0 0 512 512;" xml:space="preserve">
<path style="fill:#B28964;" d="M345.726,107.606H166.273c-10.345,0-18.732-8.387-18.732-18.732V18.732
	C147.541,8.387,155.928,0,166.273,0h179.454c10.345,0,18.732,8.387,18.732,18.732v70.143
	C364.458,99.219,356.071,107.606,345.726,107.606z"/>
<path style="fill:#896746;" d="M345.726,0H256v107.606h89.726c10.345,0,18.732-8.387,18.732-18.732V18.732
	C364.458,8.387,356.071,0,345.726,0z"/>
<path style="fill:#797680;" d="M425.785,512H86.215c-28.201,0-51.144-22.944-51.144-51.144v-339.57
	c0-28.201,22.944-51.145,51.144-51.145h339.57c28.201,0,51.144,22.944,51.144,51.145v339.57
	C476.929,489.056,453.987,512,425.785,512z"/>
<path style="fill:#56565C;" d="M425.785,70.142H256V512h169.785c28.201,0,51.144-22.944,51.144-51.144v-339.57
	C476.929,93.085,453.987,70.142,425.785,70.142z"/>
<path style="fill:#9BFCFF;" d="M393.372,447.176H118.627c-10.345,0-18.732-8.387-18.732-18.732V153.699
	c0-10.345,8.387-18.732,18.732-18.732h274.744c10.345,0,18.732,8.387,18.732,18.732v274.745
	C412.104,438.789,403.717,447.176,393.372,447.176z"/>
<path style="fill:#83C9FF;" d="M393.372,134.967H256v312.209h137.372c10.345,0,18.732-8.387,18.732-18.732V153.699
	C412.104,143.354,403.717,134.967,393.372,134.967z"/>
<path style="fill:#2586FD;" d="M204.606,342.463c-7.315-7.315-7.315-19.175,0-26.49l32.662-32.661v-70.435
	c0-10.345,8.387-18.732,18.732-18.732s18.732,8.387,18.732,18.732v78.195c0,4.969-1.973,9.732-5.487,13.245l-38.148,38.146
	C223.783,349.778,211.923,349.78,204.606,342.463z"/>
<path style="fill:#3A4DE2;" d="M256,194.145v123.416l13.245-13.245c3.513-3.513,5.487-8.277,5.487-13.245v-78.195
	C274.732,202.532,266.345,194.145,256,194.145z"/>
<g>
</g>
<g>
</g>
<g>
</g>
<g>
</g>
<g>
</g>
<g>
</g>
<g>
</g>
<g>
</g>
<g>
</g>
<g>
</g>
<g>
</g>
<g>
</g>
<g>
</g>
<g>
</g>
<g>
</g>
</svg>
